# xmcd CD database file
#
# Track frame offsets:
#	150
#	14065
#	22555
#	32502
#	42115
#	54415
#	68202
#	83440
#	95260
#	103445
#	111917
#	124412
#	144310
#	162860
#	171555
#	177665
#	185465
#	199312
#	210047
#	216492
#	231535
#	239850
#	249967
#	257157
#	263107
#	270605
#	280320
#	287765
#	301225
#	313192
#	325030
#	335072
#
# Disc length: 4561 seconds
#
# Revision: 3
# Processed by: cddbd v1.5.2PL0 Copyright (c) Steve Scherf et al.
# Submitted via: CDex 1.51
#
DISCID=e311cf20
DTITLE=Rachmaninoff - Complete Songs Vol.1  (J. Rodgers, M. Popescu, A. Naoumenko)
DYEAR=2008
DGENRE=Classique
TTITLE0=At the Gates of the Cloister (U vrat obiteli svyatoy)
TTITLE1=Nothing shall I say to you (Ya tebe nichevo ne skazhu)
TTITLE2=Again, you are bestirred (Opyat' vstrepenulos' ti, serdtse
TTITLE3=April, a festive day! (Aprel'! Veshniy praznichniy den')
TTITLE4=Dusk was Falling (Smerkalos)
TTITLE5=Song of the disenchanted (Pesnya razocharovannovo)
TTITLE6=The flower died (Uvyal tsvetok)
TTITLE7=Do you remember the evening (Ti pomnish' li vecher ¿)
TTITLE8=Op.4  n°1, O no, I beg you, do not leave
TTITLE9=Op.4  n°2, Morning
TTITLE10=Op.4  n°3, In the silence of the secret night
TTITLE11=Op.4 .n°4, Sing not, O lovely one
TTITLE12=Op.4  n°5, Oh, my field
TTITLE13=Op.4  n°6, It wasn't long ago, my friend
TTITLE14=Op.8  n°1, Water Lily
TTITLE15=Op.8  n°2, Child, your beauty is like a flower
TTITLE16=Op.8  n°3, Thoughts, reflections
TTITLE17=Op.8  n°4, I fell in love, to my sorrow
TTITLE18=Op.8  n°5,  A dream
TTITLE19=Op.8  n°6, Prayer
TTITLE20=Op.14  n°1, I await you
TTITLE21=Op.14  n°2, Small Island
TTITLE22=Op.14  n°3, How fleeting are love's delights
TTITLE23=Op.14  n°4, I was with her
TTITLE24=Op.14  n°5, Summer nights
TTITLE25=Op.14  n°6, You are loved by all
TTITLE26=Op.14  n°7, Do not believe me, dear friend
TTITLE27=Op.14  n°8, Oh, do not grieve
TTITLE28=Op.14  n°9, She is as beautiful as midday
TTITLE29=Op.14  n°10, In my soul
TTITLE30=Op.14  n°11, Spring torrents
TTITLE31=Op.14  n°12, It is time
EXTD=YEAR: 2008
EXTT0=
EXTT1=
EXTT2=
EXTT3=
EXTT4=
EXTT5=
EXTT6=
EXTT7=
EXTT8=
EXTT9=
EXTT10=
EXTT11=
EXTT12=
EXTT13=
EXTT14=
EXTT15=
EXTT16=
EXTT17=
EXTT18=
EXTT19=
EXTT20=
EXTT21=
EXTT22=
EXTT23=
EXTT24=
EXTT25=
EXTT26=
EXTT27=
EXTT28=
EXTT29=
EXTT30=
EXTT31=
PLAYORDER=
